<?xml version="1.0" encoding="UTF-8"?>
<svg xmlns="http://www.w3.org/2000/svg"
     viewBox="0 0 1107 224"
     width="1107" height="224"
     role="img" aria-labelledby="title desc">
  <title id="title">ZKickoff logo</title>
  <desc id="desc">Pixel-style ZKickoff football logo in neon green and white.</desc>
  <g fill-rule="evenodd">
    <path fill="#39FF00" d="M 579,24 L 578,25 L 578,34 L 577,35 L 577,37 L 578,38 L 578,96 L 577,97 L 577,103 L 578,104 L 578,131 L 577,132 L 577,133 L 578,134 L 578,197 L 577,198 L 577,205 L 578,206 L 578,210 L 622,210 L 623,209 L 623,169 L 625,167 L 631,167 L 632,168 L 638,168 L 639,169 L 639,186 L 640,187 L 658,187 L 659,188 L 659,210 L 704,210 L 704,148 L 703,147 L 685,147 L 684,148 L 683,148 L 681,146 L 681,139 L 682,138 L 682,136 L 681,135 L 681,131 L 682,130 L 682,127 L 681,126 L 660,126 L 659,125 L 659,107 L 660,106 L 680,106 L 681,105 L 681,104 L 682,103 L 682,90 L 681,89 L 681,87 L 683,85 L 704,85 L 704,25 L 703,24 L 660,24 L 659,25 L 659,44 L 658,45 L 640,45 L 639,46 L 639,65 L 638,66 L 624,66 L 623,65 L 623,25 L 622,24 Z M 471,24 L 470,25 L 470,44 L 469,45 L 448,45 L 447,46 L 447,188 L 448,189 L 468,189 L 470,191 L 470,210 L 539,210 L 539,191 L 541,189 L 560,189 L 561,188 L 561,148 L 560,147 L 542,147 L 541,148 L 540,148 L 539,147 L 528,147 L 527,148 L 518,148 L 518,167 L 517,168 L 502,168 L 501,169 L 497,169 L 496,168 L 495,169 L 493,167 L 493,103 L 494,102 L 494,100 L 493,99 L 493,76 L 494,75 L 494,71 L 493,70 L 494,69 L 493,68 L 493,67 L 495,65 L 516,65 L 518,67 L 518,85 L 560,85 L 561,84 L 561,46 L 560,45 L 540,45 L 539,44 L 539,25 L 538,24 Z M 385,24 L 384,25 L 384,210 L 429,210 L 430,209 L 430,26 L 428,24 Z M 233,24 L 231,26 L 231,210 L 278,210 L 278,169 L 280,167 L 295,167 L 297,169 L 297,187 L 316,187 L 317,188 L 317,210 L 363,210 L 363,148 L 362,147 L 341,147 L 340,146 L 340,127 L 339,126 L 318,126 L 317,125 L 317,107 L 318,106 L 339,106 L 340,105 L 340,86 L 341,85 L 363,85 L 363,25 L 362,24 L 318,24 L 317,25 L 317,44 L 316,45 L 297,45 L 297,64 L 295,66 L 279,66 L 278,65 L 278,25 L 277,24 Z M 37,0 L 36,1 L 31,1 L 30,2 L 28,2 L 27,3 L 25,3 L 24,4 L 22,4 L 21,5 L 20,5 L 18,7 L 17,7 L 14,10 L 13,10 L 10,13 L 10,14 L 6,18 L 6,19 L 5,20 L 5,21 L 4,22 L 4,23 L 3,24 L 3,25 L 2,26 L 2,28 L 1,29 L 1,31 L 0,32 L 0,191 L 1,192 L 1,194 L 2,195 L 2,197 L 3,198 L 3,200 L 4,201 L 4,202 L 6,204 L 6,205 L 8,207 L 8,208 L 15,215 L 16,215 L 18,217 L 19,217 L 21,219 L 23,219 L 24,220 L 25,220 L 26,221 L 28,221 L 29,222 L 32,222 L 33,223 L 179,223 L 180,222 L 183,222 L 184,221 L 186,221 L 187,220 L 188,220 L 189,219 L 190,219 L 191,218 L 192,218 L 193,217 L 194,217 L 197,214 L 198,214 L 199,213 L 199,212 L 204,207 L 204,206 L 206,204 L 206,203 L 207,202 L 207,201 L 208,200 L 208,198 L 209,197 L 209,196 L 210,195 L 210,192 L 211,191 L 211,32 L 210,31 L 210,29 L 209,28 L 209,26 L 208,25 L 208,24 L 207,23 L 207,22 L 206,21 L 206,20 L 205,19 L 205,18 L 202,15 L 202,14 L 197,9 L 196,9 L 194,7 L 193,7 L 191,5 L 190,5 L 189,4 L 188,4 L 187,3 L 185,3 L 184,2 L 181,2 L 180,1 L 173,1 L 172,0 L 164,0 L 163,1 L 157,1 L 156,0 L 70,0 L 69,1 L 66,1 L 65,0 L 50,0 L 49,1 L 38,1 Z M 35,31 L 36,30 L 175,30 L 176,31 L 176,71 L 175,72 L 160,72 L 159,73 L 159,95 L 158,96 L 141,96 L 141,115 L 139,117 L 126,117 L 125,116 L 124,117 L 124,136 L 123,137 L 106,137 L 106,150 L 107,151 L 175,151 L 176,152 L 176,193 L 175,194 L 36,194 L 35,193 L 35,148 L 36,147 L 43,147 L 44,146 L 52,146 L 52,141 L 53,140 L 53,127 L 54,126 L 69,126 L 70,125 L 70,107 L 71,106 L 87,106 L 87,96 L 88,95 L 88,90 L 87,89 L 87,87 L 88,86 L 105,86 L 105,72 L 36,72 L 35,71 Z"/>
    <path fill="#FFFFFF" d="M 1001,25 L 1001,210 L 1047,210 L 1047,137 L 1048,136 L 1093,136 L 1093,97 L 1049,97 L 1047,95 L 1047,66 L 1048,65 L 1105,65 L 1106,64 L 1106,25 Z M 876,25 L 876,210 L 922,210 L 922,137 L 923,136 L 969,136 L 969,97 L 923,97 L 922,96 L 922,66 L 923,65 L 983,65 L 983,25 Z M 749,25 L 749,44 L 748,45 L 730,45 L 729,46 L 724,46 L 724,189 L 748,189 L 749,190 L 749,210 L 828,210 L 828,190 L 829,189 L 853,189 L 853,46 L 852,45 L 847,45 L 846,46 L 834,46 L 833,45 L 832,45 L 831,46 L 830,46 L 828,44 L 828,25 Z M 775,65 L 776,64 L 802,64 L 803,65 L 803,170 L 802,171 L 776,171 L 775,170 L 775,73 L 774,72 L 774,70 L 775,69 Z"/>
  </g>
</svg>
